<svg width="160" height="32" viewBox="0 0 160 32" fill="none" xmlns="http://www.w3.org/2000/svg" role="img" aria-label="Performant Labs">
  <!-- Navy square badge -->
  <rect width="32" height="32" rx="6" fill="#1B2638"/>
  <!-- P path -->
  <path d="M9 8h6c2.2 0 4 1.8 4 4s-1.8 4-4 4H11v6H9V8zm2 6h4c1.1 0 2-.9 2-2s-.9-2-2-2h-4v4z" fill="#F59E0B"/>
  <!-- L path -->
  <path d="M20 8h2v12h6v2h-8V8z" fill="#F59E0B"/>
  <!-- Wordmark: "Performant Labs" as separate letter groups -->
  <!-- P -->
  <path d="M44 10h3.6c1.3 0 2.4 1 2.4 2.3S48.9 14.6 47.6 14.6H45.3v4.4H44V10zm1.3 3.5h2.2c.6 0 1.1-.5 1.1-1.1s-.5-1.1-1.1-1.1h-2.2v2.2z" fill="#1B2638"/>
  <!-- e -->
  <path d="M51 14.3c0-2.1 1.4-3.4 3.2-3.4s3 1.5 3 3.3v.5h-4.9c.1.9.8 1.5 1.8 1.5.7 0 1.2-.3 1.6-.8l.9.7c-.6.8-1.4 1.2-2.5 1.2-1.9 0-3.1-1.3-3.1-3zm1.4-.6h3.5c-.1-.8-.6-1.4-1.7-1.4-1 0-1.6.6-1.8 1.4z" fill="#1B2638"/>
  <!-- r -->
  <path d="M59.5 11h1.3v1.1c.3-.7 1-1.2 1.9-1.2v1.3c-1.1 0-1.9.6-1.9 2v3h-1.3V11z" fill="#1B2638"/>
  <!-- f -->
  <path d="M65 9.5c0-1 .6-1.6 1.6-1.6h.5v1.1h-.3c-.4 0-.5.2-.5.5v1.5h.8v1.1h-.8v5h-1.3v-5h-.7V11h.7V9.5z" fill="#1B2638"/>
  <!-- o -->
  <path d="M68.5 14.3c0-2 1.3-3.4 3.2-3.4s3.2 1.4 3.2 3.4-1.3 3.4-3.2 3.4-3.2-1.4-3.2-3.4zm1.3 0c0 1.2.7 2.2 1.9 2.2s1.9-1 1.9-2.2-.7-2.2-1.9-2.2-1.9 1-1.9 2.2z" fill="#1B2638"/>
  <!-- r -->
  <path d="M76.5 11h1.3v1.1c.3-.7 1-1.2 1.9-1.2v1.3c-1.1 0-1.9.6-1.9 2v3h-1.3V11z" fill="#1B2638"/>
  <!-- m (simplified) -->
  <path d="M80.5 11h1.3v.9c.4-.6 1-.9 1.7-.9.8 0 1.4.4 1.7 1-.4-.6 1.1-.9 1.9-.9 1.3 0 2 .8 2 2.1v3.8h-1.3v-3.5c0-.8-.3-1.2-1-1.2s-1.1.5-1.1 1.3v3.4h-1.3v-3.5c0-.8-.4-1.2-1-1.2-.7 0-1.1.5-1.1 1.3v3.4h-1.3V11z" fill="#1B2638"/>
  <!-- a -->
  <path d="M91 12.1c.5-.7 1.2-1.1 2.1-1.1 2 0 3 1.4 3 3.3s-1 3.4-3 3.4c-.9 0-1.6-.4-2.1-1.1v1h-1.3V8h1.3v4.1zm0 2.2c0 1.2.7 2.1 1.8 2.1s1.9-.9 1.9-2.1-.7-2.1-1.9-2.1-1.8.9-1.8 2.1z" fill="#1B2638"/>
  <!-- n -->
  <path d="M98 11h1.3v1c.4-.7 1.1-1.1 2-1.1 1.4 0 2.1.9 2.1 2.2v3.9h-1.3v-3.6c0-.8-.4-1.3-1.2-1.3s-1.3.6-1.3 1.4v3.5H98V11z" fill="#1B2638"/>
  <!-- t -->
  <path d="M106.5 9.4h1.3V11h1.2v1.1h-1.2v3.5c0 .5.2.7.7.7h.5V17.4h-.8c-1.1 0-1.7-.5-1.7-1.7v-3.6h-.8V11h.8V9.4z" fill="#1B2638"/>
  <!-- divider -->
  <rect x="114" y="10" width="1" height="10" rx="0.5" fill="#CBD5E1"/>
  <!-- L -->
  <path d="M117.5 10h1.3v8h4.8v1.2h-6.1V10z" fill="#1B2638"/>
  <!-- a -->
  <path d="M124.5 12.1c.5-.7 1.2-1.1 2.1-1.1 2 0 3 1.4 3 3.3s-1 3.4-3 3.4c-.9 0-1.6-.4-2.1-1.1v1h-1.3V11h1.3v1.1zm0 2.2c0 1.2.7 2.1 1.8 2.1s1.9-.9 1.9-2.1-.7-2.1-1.9-2.1-1.8.9-1.8 2.1z" fill="#1B2638"/>
  <!-- b -->
  <path d="M131.5 8h1.3v4.1c.5-.7 1.2-1.1 2.1-1.1 2 0 3 1.4 3 3.3s-1 3.4-3 3.4c-.9 0-1.6-.4-2.1-1.1v1h-1.3V8zm1.3 6.3c0 1.2.7 2.1 1.8 2.1s1.9-.9 1.9-2.1-.7-2.1-1.9-2.1-1.8.9-1.8 2.1z" fill="#1B2638"/>
  <!-- s -->
  <path d="M139 15.8c.4.6.9.9 1.6.9.7 0 1-.3 1-.7 0-.5-.5-.7-1.4-.9-1-.3-1.9-.7-1.9-1.8 0-1.1.9-1.8 2.2-1.8.9 0 1.6.3 2.1 1l-.9.8c-.3-.5-.7-.7-1.2-.7-.6 0-.9.3-.9.7s.5.6 1.3.9c1 .3 2 .7 2 1.9 0 1.1-.9 1.8-2.3 1.8-1 0-1.9-.4-2.5-1.1l.9-.9z" fill="#1B2638"/>
</svg>
